<svg width="1280" height="640" viewBox="0 0 1280 640" fill="none" xmlns="http://www.w3.org/2000/svg">
  <defs>
    <linearGradient id="bg" x1="80" y1="52" x2="1200" y2="600" gradientUnits="userSpaceOnUse">
      <stop stop-color="#F8ECCC"/>
      <stop offset="0.55" stop-color="#EDCE8C"/>
      <stop offset="1" stop-color="#D79839"/>
    </linearGradient>
    <radialGradient id="glow" cx="0" cy="0" r="1" gradientUnits="userSpaceOnUse" gradientTransform="translate(922 110) rotate(149.127) scale(566 304)">
      <stop stop-color="#FFFDF7" stop-opacity="0.95"/>
      <stop offset="1" stop-color="#FFFDF7" stop-opacity="0"/>
    </radialGradient>
    <linearGradient id="panel" x1="432" y1="80" x2="1200" y2="564" gradientUnits="userSpaceOnUse">
      <stop stop-color="#FFFDF7" stop-opacity="0.98"/>
      <stop offset="1" stop-color="#FFF3D8" stop-opacity="0.92"/>
    </linearGradient>
    <linearGradient id="boardPanel" x1="64" y1="80" x2="408" y2="536" gradientUnits="userSpaceOnUse">
      <stop stop-color="#F2D99B" stop-opacity="0.94"/>
      <stop offset="1" stop-color="#E0B661" stop-opacity="0.88"/>
    </linearGradient>
    <filter id="shadow" x="0" y="0" width="1280" height="640" filterUnits="userSpaceOnUse" color-interpolation-filters="sRGB">
      <feDropShadow dx="0" dy="18" stdDeviation="24" flood-color="#694816" flood-opacity="0.16"/>
    </filter>
    <filter id="stoneShadow" x="0" y="0" width="1280" height="640" filterUnits="userSpaceOnUse" color-interpolation-filters="sRGB">
      <feDropShadow dx="0" dy="8" stdDeviation="7" flood-color="#2F210F" flood-opacity="0.24"/>
    </filter>
  </defs>

  <rect width="1280" height="640" rx="32" fill="url(#bg)"/>
  <rect width="1280" height="640" rx="32" fill="url(#glow)"/>

  <g filter="url(#shadow)">
    <rect x="68" y="84" width="340" height="472" rx="30" fill="url(#boardPanel)" stroke="#FFF3D8" stroke-width="2"/>
  </g>
  <rect x="104" y="122" width="268" height="268" rx="22" fill="#EDCD85" fill-opacity="0.92"/>
  <g opacity="0.62" stroke="#7B561F" stroke-width="2.5">
    <path d="M130 148H346"/>
    <path d="M130 175H346"/>
    <path d="M130 202H346"/>
    <path d="M130 229H346"/>
    <path d="M130 256H346"/>
    <path d="M130 283H346"/>
    <path d="M130 310H346"/>
    <path d="M130 337H346"/>
    <path d="M130 364H346"/>
    <path d="M130 148V364"/>
    <path d="M157 148V364"/>
    <path d="M184 148V364"/>
    <path d="M211 148V364"/>
    <path d="M238 148V364"/>
    <path d="M265 148V364"/>
    <path d="M292 148V364"/>
    <path d="M319 148V364"/>
    <path d="M346 148V364"/>
  </g>
  <g filter="url(#stoneShadow)">
    <circle cx="157" cy="229" r="18" fill="#191919"/>
    <circle cx="184" cy="256" r="18" fill="#F8F3E7" stroke="#D8C39D" stroke-width="3"/>
    <circle cx="211" cy="229" r="18" fill="#191919"/>
    <circle cx="292" cy="202" r="18" fill="#F8F3E7" stroke="#D8C39D" stroke-width="3"/>
    <circle cx="238" cy="283" r="18" fill="#E8F5E5" stroke="#4E8B57" stroke-width="4"/>
    <circle cx="292" cy="283" r="18" fill="#191919"/>
  </g>
  <text x="104" y="446" font-family="PingFang SC, Hiragino Sans GB, Microsoft YaHei, Segoe UI, Arial, sans-serif" font-size="22" font-weight="700" fill="#2A2318">野狐数字ID抓谱，重新可用</text>
  <text x="104" y="476" font-family="PingFang SC, Hiragino Sans GB, Microsoft YaHei, Segoe UI, Arial, sans-serif" font-size="16" font-weight="500" fill="#70592D">输入纯数字的野狐数字ID，抓最新公开棋谱</text>
  <text x="104" y="500" font-family="PingFang SC, Hiragino Sans GB, Microsoft YaHei, Segoe UI, Arial, sans-serif" font-size="16" font-weight="500" fill="#70592D">然后继续分析、复盘和研究。</text>

  <g filter="url(#shadow)">
    <rect x="432" y="84" width="788" height="472" rx="30" fill="url(#panel)" stroke="#FFF6E3" stroke-width="2"/>
  </g>
  <rect x="484" y="128" width="180" height="42" rx="21" fill="#173C34"/>
  <text x="574" y="155" text-anchor="middle" font-family="PingFang SC, Hiragino Sans GB, Microsoft YaHei, Segoe UI, Arial, sans-serif" font-size="18" font-weight="700" fill="#F8F1E0">持续维护版</text>

  <text x="484" y="244" font-family="Avenir Next, Segoe UI, Arial, sans-serif" font-size="72" font-weight="800" fill="#171513">LizzieYzy</text>
  <text x="484" y="322" font-family="Avenir Next, Segoe UI, Arial, sans-serif" font-size="72" font-weight="800" fill="#171513">Next-FoxUID</text>
  <text x="484" y="384" font-family="PingFang SC, Hiragino Sans GB, Microsoft YaHei, Segoe UI, Arial, sans-serif" font-size="32" font-weight="700" fill="#6C5328">原版失效的野狐抓谱，已经修好</text>
  <text x="484" y="424" font-family="PingFang SC, Hiragino Sans GB, Microsoft YaHei, Segoe UI, Arial, sans-serif" font-size="28" font-weight="700" fill="#6C5328">Windows 直接下 exe，打开就能继续分析</text>

  <text x="484" y="462" font-family="PingFang SC, Hiragino Sans GB, Microsoft YaHei, Segoe UI, Arial, sans-serif" font-size="21" font-weight="500" fill="#7C6741">Windows   macOS   Linux</text>

  <rect x="484" y="486" width="178" height="46" rx="23" fill="#1B4D3E"/>
  <text x="573" y="516" text-anchor="middle" font-family="PingFang SC, Hiragino Sans GB, Microsoft YaHei, Segoe UI, Arial, sans-serif" font-size="22" font-weight="700" fill="#F7F0DF">野狐数字ID</text>
  <rect x="680" y="486" width="220" height="46" rx="23" fill="#7F4F24"/>
  <text x="790" y="516" text-anchor="middle" font-family="PingFang SC, Hiragino Sans GB, Microsoft YaHei, Segoe UI, Arial, sans-serif" font-size="21" font-weight="700" fill="#FFF7E8">Windows 直接下 exe</text>
  <rect x="918" y="486" width="220" height="46" rx="23" fill="#2F4858"/>
  <text x="1028" y="516" text-anchor="middle" font-family="PingFang SC, Hiragino Sans GB, Microsoft YaHei, Segoe UI, Arial, sans-serif" font-size="21" font-weight="700" fill="#F5F7FA">打开就能分析</text>
</svg>
